0
SECTION
2
HEADER
9
$INSUNITS
70
4
9
$ACADVER
1
AC1014
9
$HANDSEED
5
FFFF
0
ENDSEC
0
SECTION
2
TABLES
0
TABLE
2
VPORT
5
8
100
AcDbSymbolTable
0
ENDTAB
0
TABLE
2
LTYPE
5
5
100
AcDbSymbolTable
0
LTYPE
5
14
100
AcDbSymbolTableRecord
100
AcDbLinetypeTableRecord
2
BYBLOCK
70
0
0
LTYPE
5
15
100
AcDbSymbolTableRecord
100
AcDbLinetypeTableRecord
2
BYLAYER
70
0
0
ENDTAB
0
TABLE
2
LAYER
5
2
100
AcDbSymbolTable
70
2
0
LAYER
5
50
100
AcDbSymbolTableRecord
100
AcDbLayerTableRecord
2
0
70
0
6
CONTINUOUS
0
ENDTAB
0
TABLE
2
STYLE
5
3
100
AcDbSymbolTable
70
1
0
STYLE
5
11
100
AcDbSymbolTableRecord
100
AcDbTextStyleTableRecord
2
STANDARD
70
0
0
ENDTAB
0
TABLE
2
VIEW
5
6
100
AcDbSymbolTable
70
0
0
ENDTAB
0
TABLE
2
UCS
5
7
100
AcDbSymbolTable
70
0
0
ENDTAB
0
TABLE
2
APPID
5
9
100
AcDbSymbolTable
70
2
0
APPID
5
12
100
AcDbSymbolTableRecord
100
AcDbRegAppTableRecord
2
ACAD
70
0
0
ENDTAB
0
TABLE
2
DIMSTYLE
5
A
100
AcDbSymbolTable
70
1
0
ENDTAB
0
TABLE
2
BLOCK_RECORD
5
1
100
AcDbSymbolTable
70
1
0
BLOCK_RECORD
5
1F
100
AcDbSymbolTableRecord
100
AcDbBlockTableRecord
2
*MODEL_SPACE
0
BLOCK_RECORD
5
1B
100
AcDbSymbolTableRecord
100
AcDbBlockTableRecord
2
*PAPER_SPACE
0
ENDTAB
0
ENDSEC
0
SECTION
2
BLOCKS
0
BLOCK
5
20
100
AcDbEntity
100
AcDbBlockBegin
2
*MODEL_SPACE
0
ENDBLK
5
21
100
AcDbEntity
100
AcDbBlockEnd
0
BLOCK
5
1C
100
AcDbEntity
100
AcDbBlockBegin
2
*PAPER_SPACE
0
ENDBLK
5
1D
100
AcDbEntity
100
AcDbBlockEnd
0
ENDSEC
0
SECTION
2
ENTITIES
0
LWPOLYLINE
5
100
100
AcDbEntity
8
0
100
AcDbPolyline
90
31
70
1
43
0.0
10
349.46707950709305
20
-826.62678484111302
10
273.54645641162307
20
-826.62678484111302
10
184.7464883580688
20
-844.27751595266102
10
182.60826843970852
20
-844.70252899786351
42
-0.095605686111676913
10
181.85036245856409
20
-844.70675831631979
10
179.3417648624029
20
-844.23716539180873
10
91.548629272345238
20
-825.86478354920223
10
11.096748919071135
20
-825.86478354920223
10
4.0487437515788471
20
-825.86478354920223
42
-0.414213562384458
10
0.048743751578790295
20
-821.86478354904693
10
0.048743751927950996
20
-812.86483354915072
10
0.048743750927933149
20
-812.86473354915074
10
0.048743751428155235
20
-720.50278225726424
10
0.048743751329816121
20
-711.5027822573353
42
-0.41421356237629997
10
4.048743751329873
20
-707.50278225729153
10
11.096748919071278
20
-707.50278225729153
10
97.488737291873861
20
-707.50278225729164
10
118.02104996076936
20
-707.50278225729164
10
141.92255697225286
20
-702.45330399732256
42
-0.052097390928388672
10
142.54265801086768
20
-702.3885146703368
10
213.38150269165368
20
-702.38851467033692
42
-0.052457370193247872
10
214.00581858927745
20
-702.45419218600273
10
236.54084126555699
20
-707.24878451813549
10
272.21907837667146
20
-707.24878451813561
10
349.67374179003662
20
-707.24878451813584
10
356.51508063751515
20
-707.24878451813561
42
-0.41421356237309503
10
360.5150806375151
20
-711.24878451813572
10
360.51508063751504
20
-813.65840730147454
42
0.0015761348640272398
10
360.51518063551498
20
-813.62688484111288
10
360.51518063551504
20
-822.62678484111291
42
-0.41421356237309503
10
356.51518063551498
20
-826.62678484111302
0
LINE
5
101
100
AcDbEntity
8
0
100
AcDbLine
10
315.87558176793715
20
-815.0707906547118
30
0
11
301.32558176793714
21
-815.0707906547118
31
0
0
LINE
5
102
100
AcDbEntity
8
0
100
AcDbLine
10
330.04241332489312
20
-788.45066007854189
30
0
11
330.042413324893
21
-796.02077773560359
31
0
0
LINE
5
103
100
AcDbEntity
8
0
100
AcDbLine
10
355.51518063651497
20
-826.62678484111302
30
0
11
356.51518063551498
21
-826.62678484111302
31
0
0
LINE
5
104
100
AcDbEntity
8
0
100
AcDbLine
10
315.87558176793715
20
-815.0707906547118
30
0
11
330.4255817679371
21
-815.0707906547118
31
0
0
LINE
5
105
100
AcDbEntity
8
0
100
AcDbLine
10
330.4255817679371
20
-808.45066037656488
30
0
11
330.42558176793716
21
-796.02077773560359
31
0
0
LINE
5
106
100
AcDbEntity
8
0
100
AcDbLine
10
330.4255817679371
20
-808.45066037656488
30
0
11
330.4255817679371
21
-815.0707906547118
31
0
0
CIRCLE
5
107
100
AcDbEntity
8
0
100
AcDbCircle
10
357.01508063711407
20
-821.86478354918279
30
0
40
1.6000000000000045
210
0
220
0
230
1
0
LINE
5
108
100
AcDbEntity
8
0
100
AcDbLine
10
330.04241332489312
20
-788.45066007854189
30
0
11
330.04241332489346
21
-776.97077773560363
31
0
0
LWPOLYLINE
5
109
100
AcDbEntity
8
0
100
AcDbPolyline
90
29
70
1
43
0.0
10
329.95141590871481
20
-774.85412398804499
10
333.46508063751526
20
-774.85412398804499
10
345.48774795013719
20
-774.8541239880451
10
349.04374698120415
20
-774.8541239880451
10
349.04374698120415
20
-771.29811688253562
10
349.04374698120409
20
-759.31778387218003
10
349.04374698120409
20
-755.78211591360241
10
344.93741251744882
20
-755.78211591360241
10
344.93741251744882
20
-752.24811688253567
10
344.93741251744882
20
-740.26778387217996
10
344.93741251744882
20
-736.73278484111324
10
340.78874778864838
20
-736.73278484111324
10
340.78874778864838
20
-733.19811688253571
10
340.78874778864838
20
-721.21778387218012
10
340.78874778864838
20
-717.66178484111333
10
337.27507902262676
20
-717.66178484111333
10
325.252415747226
20
-717.66178484111333
10
321.6964126790254
20
-717.66178484111333
10
321.69641267900613
20
-721.21780250562915
10
321.69641267893786
20
-733.19811688253571
10
321.69641267891711
20
-736.73278484111324
10
325.88741574722604
20
-736.73278484111324
10
325.88741574722604
20
-740.26778387217996
10
325.88741574722604
20
-752.24811688253567
10
325.88741574722604
20
-755.78211591360241
10
329.40108047602644
20
-755.78211591360241
10
329.95141590871481
20
-755.78211591360241
10
329.95141590871481
20
-759.31778387218003
10
329.95141590871481
20
-771.29811688253562
0
LINE
5
110
100
AcDbEntity
8
0
100
AcDbLine
10
328.91990428313198
20
-776.97077773560363
30
0
11
330.04241332489346
21
-776.97077773560363
31
0
0
LINE
5
111
100
AcDbEntity
8
0
100
AcDbLine
10
325.97649472036034
20
-776.97077773560363
30
0
11
328.91990428313198
21
-776.97077773560363
31
0
0
LINE
5
112
100
AcDbEntity
8
0
100
AcDbLine
10
325.97649472036034
20
-767.45065976561762
30
0
11
325.97649472036034
21
-776.97077773560363
31
0
0
LINE
5
113
100
AcDbEntity
8
0
100
AcDbLine
10
330.042413324893
20
-796.02077773560359
30
0
11
330.42558176793716
21
-796.02077773560359
31
0
0
LINE
5
114
100
AcDbEntity
8
0
100
AcDbLine
10
301.32558176793714
20
-809.98002514798281
30
0
11
301.32558176793714
21
-796.02077773560359
31
0
0
LINE
5
115
100
AcDbEntity
8
0
100
AcDbLine
10
301.32558176793714
20
-796.02077773560359
30
0
11
284.49519787321276
21
-796.02077773560359
31
0
0
LINE
5
116
100
AcDbEntity
8
0
100
AcDbLine
10
284.49519787321276
20
-796.02077773560359
30
0
11
274.41097122631328
21
-796.02077773560359
31
0
0
CIRCLE
5
117
100
AcDbEntity
8
0
100
AcDbCircle
10
276.39907837667153
20
-710.74878451813572
30
0
40
1.5999999999999928
210
0
220
0
230
1
0
LINE
5
118
100
AcDbEntity
8
0
100
AcDbLine
10
317.75941623169251
20
-738.8707858100463
30
0
11
321.69174568929344
21
-738.8707858100463
31
0
0
LINE
5
119
100
AcDbEntity
8
0
100
AcDbLine
10
317.75941623169251
20
-723.3344505388468
30
0
11
317.75941623169251
21
-735.35711785146873
31
0
0
LINE
5
120
100
AcDbEntity
8
0
100
AcDbLine
10
274.71568924186334
20
-710.74878451813572
30
0
11
274.7990783766715
21
-710.74878451813572
31
0
0
LINE
5
121
100
AcDbEntity
8
0
100
AcDbLine
10
276.52674407440509
20
-717.66178484111333
30
0
11
280.08275117991451
21
-717.66178484111333
31
0
0
LINE
5
122
100
AcDbEntity
8
0
100
AcDbLine
10
321.69174568929344
20
-751.11223361379177
30
0
11
321.69174568929344
21
-757.92078581004625
31
0
0
LINE
5
123
100
AcDbEntity
8
0
100
AcDbLine
10
321.69174568929344
20
-751.11223361379177
30
0
11
321.69174568929344
21
-739.4506593483851
31
0
0
LINE
5
124
100
AcDbEntity
8
0
100
AcDbLine
10
280.08275117991451
20
-719.82078581004635
30
0
11
280.08275117991451
21
-717.66178484111333
31
0
0
LINE
5
125
100
AcDbEntity
8
0
100
AcDbLine
10
295.19575150289222
20
-719.82078581004635
30
0
11
283.17308419027017
21
-719.82078581004635
31
0
0
LINE
5
126
100
AcDbEntity
8
0
100
AcDbLine
10
321.69174568929344
20
-739.4506593483851
30
0
11
321.69174568929344
21
-738.8707858100463
31
0
0
LINE
5
127
100
AcDbEntity
8
0
100
AcDbLine
10
283.17308419027017
20
-719.82078581004635
30
0
11
280.08275117991451
21
-719.82078581004635
31
0
0
LINE
5
128
100
AcDbEntity
8
0
100
AcDbLine
10
264.54641106404955
20
-717.66178484111333
30
0
11
260.99041203298259
21
-717.66178484111333
31
0
0
LINE
5
129
100
AcDbEntity
8
0
100
AcDbLine
10
179.43875327021038
20
-769.56137425493125
30
0
11
178.74268221154708
21
-772.84116441244339
31
0
0
LINE
5
130
100
AcDbEntity
8
0
100
AcDbLine
10
264.08072433725403
20
-817.36455633699643
30
0
11
249.84995096596194
21
-820.39565997345017
31
0
0
LINE
5
131
100
AcDbEntity
8
0
100
AcDbLine
10
199.37486800516558
20
-790.62479189852684
30
0
11
190.08431729191108
21
-792.60364857048921
31
0
0
LINE
5
132
100
AcDbEntity
8
0
100
AcDbLine
10
175.91625027176656
20
-791.8681124681043
30
0
11
179.41146064390642
21
-792.61257972878991
31
0
0
LINE
5
133
100
AcDbEntity
8
0
100
AcDbLine
10
199.32862026332663
20
-767.57263341751855
30
0
11
200.11331542413046
21
-771.25671035393566
31
0
0
CIRCLE
5
134
100
AcDbEntity
8
0
100
AcDbCircle
10
231.37283872967274
20
-831.50961652475053
30
0
40
1.6000000000000099
210
0
220
0
230
1
0
LINE
5
135
100
AcDbEntity
8
0
100
AcDbLine
10
191.88298222060121
20
-801.06570175086745
30
0
11
194.04414182946601
21
-811.23315831812135
31
0
0
LINE
5
136
100
AcDbEntity
8
0
100
AcDbLine
10
192.56694547869068
20
-811.54779627067683
30
0
11
184.58472768416493
21
-813.24798234438481
31
0
0
LINE
5
137
100
AcDbEntity
8
0
100
AcDbLine
10
249.70634971026996
20
-819.72146431052124
30
0
11
249.84995096596194
21
-820.39565997345017
31
0
0
LINE
5
138
100
AcDbEntity
8
0
100
AcDbLine
10
186.93823903475726
20
-824.33740097082
30
0
11
184.58472768416493
21
-813.24798234438481
31
0
0
LINE
5
139
100
AcDbEntity
8
0
100
AcDbLine
10
200.11331542413046
20
-771.25671035393566
30
0
11
195.47409126965186
21
-772.24484844299639
31
0
0
LINE
5
140
100
AcDbEntity
8
0
100
AcDbLine
10
197.39758625240205
20
-781.30810210170364
30
0
11
195.47409126965186
21
-772.24484844299639
31
0
0
LINE
5
141
100
AcDbEntity
8
0
100
AcDbLine
10
191.88298222060121
20
-801.06570175086745
30
0
11
190.08431729191108
21
-792.60364857048921
31
0
0
LINE
5
142
100
AcDbEntity
8
0
100
AcDbLine
10
197.39758625240205
20
-781.30810210170364
30
0
11
199.37486800516558
21
-790.62479189852684
31
0
0
LINE
5
143
100
AcDbEntity
8
0
100
AcDbLine
10
194.04414182946601
20
-811.23315831812135
30
0
11
192.56694547869068
21
-811.54779627067683
31
0
0
LINE
5
144
100
AcDbEntity
8
0
100
AcDbLine
10
186.93823903475726
20
-824.33740097082
30
0
11
188.54006631145489
21
-831.88498863555424
31
0
0
LINE
5
145
100
AcDbEntity
8
0
100
AcDbLine
10
253.99839787148301
20
-720.58419588478864
30
0
11
260.99041203298259
21
-719.10027817485923
31
0
0
LINE
5
146
100
AcDbEntity
8
0
100
AcDbLine
10
260.99041203298259
20
-719.10027817485923
30
0
11
260.99041203298259
21
-717.66178484111333
31
0
0
LINE
5
147
100
AcDbEntity
8
0
100
AcDbLine
10
196.82647250428397
20
-755.82525474311342
30
0
11
196.09489222249451
21
-752.39054527407859
31
0
0
LINE
5
148
100
AcDbEntity
8
0
100
AcDbLine
10
186.07807878781364
20
-750.93474381697524
30
0
11
186.80941927938017
21
-754.36832039774401
31
0
0
LINE
5
149
100
AcDbEntity
8
0
100
AcDbLine
10
183.57903442259521
20
-739.15959383736151
30
0
11
182.84571643250268
21
-735.70430131183912
31
0
0
LINE
5
150
100
AcDbEntity
8
0
100
AcDbLine
10
276.74292192107373
20
-806.96912299610426
30
0
11
274.41097122631328
21
-796.02077773560359
31
0
0
LINE
5
151
100
AcDbEntity
8
0
100
AcDbLine
10
301.32558176793714
20
-809.98002514798281
30
0
11
301.32558176793714
21
-815.0707906547118
31
0
0
LINE
5
152
100
AcDbEntity
8
0
100
AcDbLine
10
179.19892316959812
20
-753.49070785410595
30
0
11
182.6941066575273
21
-754.23517041378545
31
0
0
LINE
5
153
100
AcDbEntity
8
0
100
AcDbLine
10
179.19892316959812
20
-753.49070785410595
30
0
11
173.3591282365299
21
-752.24685078654716
31
0
0
LINE
5
154
100
AcDbEntity
8
0
100
AcDbLine
10
242.15315046188351
20
-723.09811705308221
30
0
11
182.84571643250268
21
-735.70430131183912
31
0
0
LINE
5
155
100
AcDbEntity
8
0
100
AcDbLine
10
188.60119507354307
20
-753.98667806088167
30
0
11
186.80941927938017
21
-754.36832039774401
31
0
0
LINE
5
156
100
AcDbEntity
8
0
100
AcDbLine
10
181.95268123772172
20
-757.71609480835934
30
0
11
179.43875327021038
21
-769.56137425493125
31
0
0
LINE
5
157
100
AcDbEntity
8
0
100
AcDbLine
10
181.95268123772172
20
-757.71609480835934
30
0
11
182.6941066575273
21
-754.23517041378545
31
0
0
LINE
5
158
100
AcDbEntity
8
0
100
AcDbLine
10
276.74292192107373
20
-806.96912299610426
30
0
11
278.31149285772983
21
-814.33345373374914
31
0
0
LINE
5
159
100
AcDbEntity
8
0
100
AcDbLine
10
196.82647250428397
20
-755.82525474311342
30
0
11
199.32862026332663
21
-767.57263341751855
31
0
0
LINE
5
160
100
AcDbEntity
8
0
100
AcDbLine
10
183.57903442259521
20
-739.15959383736151
30
0
11
186.07807878781364
21
-750.93474381697524
31
0
0
LINE
5
161
100
AcDbEntity
8
0
100
AcDbLine
10
196.09489222249451
20
-752.39054527407859
30
0
11
188.60119507354307
21
-753.98667806088167
31
0
0
LINE
5
162
100
AcDbEntity
8
0
100
AcDbLine
10
183.57903442259521
20
-739.15959383736151
30
0
11
186.07807878781364
21
-750.93474381697524
31
0
0
LINE
5
163
100
AcDbEntity
8
0
100
AcDbLine
10
253.99839787148301
20
-720.58419588478864
30
0
11
242.15315046188351
21
-723.09811705308221
31
0
0
LINE
5
164
100
AcDbEntity
8
0
100
AcDbLine
10
170.80274777882607
20
-787.21439029519524
30
0
11
170.07645825633517
21
-790.62425773496557
31
0
0
LINE
5
165
100
AcDbEntity
8
0
100
AcDbLine
10
175.91625027176656
20
-791.8681124681043
30
0
11
170.07645825633517
21
-790.62425773496557
31
0
0
LINE
5
166
100
AcDbEntity
8
0
100
AcDbLine
10
173.31667606051661
20
-775.36909311423688
30
0
11
174.06722927185632
21
-771.84530972220182
31
0
0
LINE
5
167
100
AcDbEntity
8
0
100
AcDbLine
10
174.06722927185632
20
-771.84530972220182
30
0
11
178.74268221154708
21
-772.84116441244339
31
0
0
CIRCLE
5
168
100
AcDbEntity
8
0
100
AcDbCircle
10
357.01508063651687
20
-711.50273225727074
30
0
40
1.6000000000000045
210
0
220
0
230
1
0
LINE
5
169
100
AcDbEntity
8
0
100
AcDbLine
10
360.5150806375151
20
-722.00672917850716
30
0
11
360.5150806375151
21
-720.24878451813549
31
0
0
LINE
5
170
100
AcDbEntity
8
0
100
AcDbLine
10
176.18335407126537
20
-807.76826510396199
30
0
11
175.44255166504541
21
-811.24626929657268
31
0
0
LINE
5
171
100
AcDbEntity
8
0
100
AcDbLine
10
360.5150806375151
20
-722.00672917850716
30
0
11
360.5150806375151
21
-720.24878451813549
31
0
0
LINE
5
172
100
AcDbEntity
8
0
100
AcDbLine
10
106.14300647079907
20
-718.59467981918692
30
0
11
101.76313798485558
21
-717.66178484111322
31
0
0
LINE
5
173
100
AcDbEntity
8
0
100
AcDbLine
10
173.31667606051661
20
-775.36909311423688
30
0
11
170.80274777882607
21
-787.21439029519524
31
0
0
LINE
5
174
100
AcDbEntity
8
0
100
AcDbLine
10
111.28043258097085
20
-818.61377714141236
30
0
11
99.547156080041987
21
-816.12361959981286
31
0
0
LINE
5
175
100
AcDbEntity
8
0
100
AcDbLine
10
178.69286092294985
20
-795.98634420540498
30
0
11
179.41146064390642
21
-792.61257972878991
31
0
0
LINE
5
176
100
AcDbEntity
8
0
100
AcDbLine
10
317.75941623169251
20
-723.3344505388468
30
0
11
317.75941623169251
21
-719.82078581004635
31
0
0
LINE
5
177
100
AcDbEntity
8
0
100
AcDbLine
10
317.75941623169251
20
-735.35711785146873
30
0
11
317.75941623169251
21
-738.8707858100463
31
0
0
LINE
5
178
100
AcDbEntity
8
0
100
AcDbLine
10
324.9412102241414
20
-757.92078581004625
30
0
11
325.75541590871478
21
-757.92078581004625
31
0
0
LINE
5
179
100
AcDbEntity
8
0
100
AcDbLine
10
325.75541590871478
20
-757.92078581004625
30
0
11
325.97649472036034
21
-757.92078581004625
31
0
0
LINE
5
180
100
AcDbEntity
8
0
100
AcDbLine
10
321.69174568929344
20
-757.92078581004625
30
0
11
324.9412102241414
21
-757.92078581004625
31
0
0
LINE
5
181
100
AcDbEntity
8
0
100
AcDbLine
10
22.696073209028871
20
-815.11811688253545
30
0
11
14.405082252404444
21
-815.11811688253545
31
0
0
LINE
5
182
100
AcDbEntity
8
0
100
AcDbLine
10
26.844754086714548
20
-719.82078581004612
30
0
11
23.331073209028919
21
-719.82078581004612
31
0
0
LINE
5
183
100
AcDbEntity
8
0
100
AcDbLine
10
23.331073209028919
20
-723.33445053884657
30
0
11
23.331073209028919
21
-735.35711785146873
31
0
0
LINE
5
184
100
AcDbEntity
8
0
100
AcDbLine
10
19.161237291873991
20
-754.40711785146857
30
0
11
19.161237291873991
21
-756.90477967346976
31
0
0
LINE
5
185
100
AcDbEntity
8
0
100
AcDbLine
10
76.96740525045135
20
-719.82078581004612
30
0
11
80.269586128136922
21
-719.82078581004612
31
0
0
LINE
5
186
100
AcDbEntity
8
0
100
AcDbLine
10
14.405082252404444
20
-799.57678484111284
30
0
11
14.405082252404444
21
-796.07812011231249
31
0
0
LINE
5
187
100
AcDbEntity
8
0
100
AcDbLine
10
23.331073209028919
20
-738.87078581004619
30
0
11
19.161237291873991
21
-738.87078581004619
31
0
0
LINE
5
188
100
AcDbEntity
8
0
100
AcDbLine
10
19.161237291873991
20
-756.90477967346976
30
0
11
19.161237291873991
21
-757.92078253277566
31
0
0
LINE
5
189
100
AcDbEntity
8
0
100
AcDbLine
10
14.405082252404444
20
-811.59945215373477
30
0
11
14.405082252404444
21
-815.11811688253545
31
0
0
LINE
5
190
100
AcDbEntity
8
0
100
AcDbLine
10
23.331073209028919
20
-735.35711785146873
30
0
11
23.331073209028919
21
-738.87078581004619
31
0
0
LINE
5
191
100
AcDbEntity
8
0
100
AcDbLine
10
66.638061581831408
20
-796.02579065471161
30
0
11
42.967405250451165
21
-796.02579065471127
31
0
0
LINE
5
192
100
AcDbEntity
8
0
100
AcDbLine
10
80.269586128136922
20
-719.82078581004612
30
0
11
80.269586128136922
21
-717.66178484111322
31
0
0
LINE
5
193
100
AcDbEntity
8
0
100
AcDbLine
10
57.917405250451338
20
-719.82078581004612
30
0
11
64.944754086714397
21
-719.82078581004612
31
0
0
LINE
5
194
100
AcDbEntity
8
0
100
AcDbLine
10
14.405082252404444
20
-796.07812011231249
30
0
11
11.120075792850432
21
-796.07812011231249
31
0
0
LINE
5
195
100
AcDbEntity
8
0
100
AcDbLine
10
19.161237291873991
20
-757.92078253277566
30
0
11
18.584470171512724
21
-757.92078253277566
31
0
0
LINE
5
196
100
AcDbEntity
8
0
100
AcDbLine
10
11.120075792850574
20
-784.45066001893701
30
0
11
11.120075792850432
21
-796.07812011231249
31
0
0
LINE
5
197
100
AcDbEntity
8
0
100
AcDbLine
10
19.161237291873991
20
-742.38445053884664
30
0
11
19.161237291873991
21
-738.87078581004619
31
0
0
LINE
5
198
100
AcDbEntity
8
0
100
AcDbLine
10
95.594078376672002
20
-717.66178484111322
30
0
11
101.76313798485558
21
-717.66178484111322
31
0
0
LINE
5
199
100
AcDbEntity
8
0
100
AcDbLine
10
23.331073209028919
20
-723.33445053884657
30
0
11
23.331073209028919
21
-719.82078581004612
31
0
0
LINE
5
200
100
AcDbEntity
8
0
100
AcDbLine
10
83.571427212935049
20
-717.66178484111322
30
0
11
80.269586128136922
21
-717.66178484111322
31
0
0
LINE
5
201
100
AcDbEntity
8
0
100
AcDbLine
10
95.594078376672002
20
-717.66178484111322
30
0
11
83.571427212935049
21
-717.66178484111322
31
0
0
LINE
5
202
100
AcDbEntity
8
0
100
AcDbLine
10
19.161237291873991
20
-742.38445053884664
30
0
11
19.161237291873991
21
-754.40711785146857
31
0
0
LINE
5
203
100
AcDbEntity
8
0
100
AcDbLine
10
42.967405250451165
20
-811.59945215373477
30
0
11
42.967405250451165
21
-815.11811688253545
31
0
0
CIRCLE
5
204
100
AcDbEntity
8
0
100
AcDbCircle
10
93.3084143759624
20
-711.14817246007851
30
0
40
1.6000000000000019
210
0
220
0
230
1
0
LINE
5
205
100
AcDbEntity
8
0
100
AcDbLine
10
42.967405250451165
20
-799.57678484111284
30
0
11
42.967405250451165
21
-796.02579065471127
31
0
0
LINE
5
206
100
AcDbEntity
8
0
100
AcDbLine
10
5.0487437514279954
20
-707.50278225729153
30
0
11
4.048743751329873
21
-707.50278225729153
31
0
0
LINE
5
207
100
AcDbEntity
8
0
100
AcDbLine
10
76.96740525045135
20
-719.82078581004612
30
0
11
64.944754086714397
21
-719.82078581004612
31
0
0
LINE
5
208
100
AcDbEntity
8
0
100
AcDbLine
10
14.405082252404444
20
-799.57678484111284
30
0
11
14.405082252404444
21
-811.59945215373477
31
0
0
CIRCLE
5
209
100
AcDbEntity
8
0
100
AcDbCircle
10
3.548743752176442
20
-711.50273225727028
30
0
40
1.6000000000000045
210
0
220
0
230
1
0
LINE
5
210
100
AcDbEntity
8
0
100
AcDbLine
10
34.676414293826895
20
-815.11811688253545
30
0
11
22.696073209028871
21
-815.11811688253545
31
0
0
LINE
5
211
100
AcDbEntity
8
0
100
AcDbLine
10
117.94594472998584
20
-721.10865983110921
30
0
11
106.14300647079907
21
-718.59467981918692
31
0
0
LINE
5
212
100
AcDbEntity
8
0
100
AcDbLine
10
15.286743751122224
20
-776.98577773560362
30
0
11
14.229406542362231
21
-776.98577773560362
31
0
0
LINE
5
213
100
AcDbEntity
8
0
100
AcDbLine
10
42.967405250451165
20
-799.57678484111284
30
0
11
42.967405250451165
21
-811.59945215373477
31
0
0
LINE
5
214
100
AcDbEntity
8
0
100
AcDbLine
10
14.229406542362231
20
-776.98577773560362
30
0
11
11.120075792850574
21
-776.98577773560362
31
0
0
LINE
5
215
100
AcDbEntity
8
0
100
AcDbLine
10
295.19575150289222
20
-719.82078581004635
30
0
11
317.75941623169251
21
-719.82078581004635
31
0
0
LINE
5
216
100
AcDbEntity
8
0
100
AcDbLine
10
325.97649472036034
20
-767.45065976561762
30
0
11
325.97649472036034
21
-757.92078581004625
31
0
0
LINE
5
217
100
AcDbEntity
8
0
100
AcDbLine
10
92.127846755645123
20
-811.08952493692016
30
0
11
91.425282240562552
21
-814.39991135926277
31
0
0
LINE
5
218
100
AcDbEntity
8
0
100
AcDbLine
10
276.52674407440509
20
-717.66178484111333
30
0
11
264.54641106404955
21
-717.66178484111333
31
0
0
LINE
5
219
100
AcDbEntity
8
0
100
AcDbLine
10
78.618402666629578
20
-796.02579065471161
30
0
11
95.336347330636556
21
-796.02579065471161
31
0
0
LINE
5
220
100
AcDbEntity
8
0
100
AcDbLine
10
162.13574137851396
20
-730.50534495161162
30
0
11
117.94594472998584
21
-721.10865983110921
31
0
0
LINE
5
221
100
AcDbEntity
8
0
100
AcDbLine
10
94.643471652158183
20
-799.27880397581134
30
0
11
95.336347330636556
21
-796.02579065471161
31
0
0
LINE
5
222
100
AcDbEntity
8
0
100
AcDbLine
10
94.643471652158183
20
-799.27880397581134
30
0
11
92.127846755645123
21
-811.08952493692016
31
0
0
LINE
5
223
100
AcDbEntity
8
0
100
AcDbLine
10
173.81126232468503
20
-732.992188995437
30
0
11
177.30193982880559
21
-733.73569077150842
31
0
0
SPLINE
5
224
100
AcDbEntity
8
0
100
AcDbSpline
70
0
71
3
72
8
73
4
74
0
42
0.000000001
43
0.0000000001
44
0.0000000001
40
0.0048930099710583624
40
0.0048930099710583624
40
0.0048930099710583624
40
0.0048930099710583624
40
0.016046732372442741
40
0.016046732372442741
40
0.016046732372442741
40
0.016046732372442741
10
162.1357413785139
20
-730.50534495161219
30
0
10
162.11509696446831
20
-730.50074797430409
30
0
10
162.09441325729969
20
-730.49635045618788
30
0
10
162.07369371287086
20
-730.49215139203613
30
0
0
LINE
5
225
100
AcDbEntity
8
0
100
AcDbLine
10
178.69286092294985
20
-795.98634420540498
30
0
11
176.18335407126537
21
-807.76826510396199
31
0
0
LINE
5
226
100
AcDbEntity
8
0
100
AcDbLine
10
111.28043258097085
20
-818.61377714141236
30
0
11
119.38584980397523
21
-820.33399278825925
31
0
0
LINE
5
227
100
AcDbEntity
8
0
100
AcDbLine
10
176.57619289197703
20
-737.14301081781605
30
0
11
174.06220784292935
21
-748.94595647153278
31
0
0
LINE
5
228
100
AcDbEntity
8
0
100
AcDbLine
10
264.08072433725403
20
-817.36455633699643
30
0
11
278.31149285772983
21
-814.33345373374914
31
0
0
LINE
5
229
100
AcDbEntity
8
0
100
AcDbLine
10
99.547156080041987
20
-816.12361959981286
30
0
11
91.425282240562552
21
-814.39991135926277
31
0
0
LINE
5
230
100
AcDbEntity
8
0
100
AcDbLine
10
11.120075792850574
20
-784.45066001893701
30
0
11
11.120075792850574
21
-776.98577773560362
31
0
0
LINE
5
231
100
AcDbEntity
8
0
100
AcDbLine
10
173.81126232468503
20
-732.992188995437
30
0
11
162.13574137851396
21
-730.50534495161162
31
0
0
LINE
5
232
100
AcDbEntity
8
0
100
AcDbLine
10
119.52781962699413
20
-819.6559665240386
30
0
11
119.38584980397523
21
-820.33399278825925
31
0
0
LINE
5
233
100
AcDbEntity
8
0
100
AcDbLine
10
78.618402666629578
20
-796.02579065471161
30
0
11
66.638061581831408
21
-796.02579065471161
31
0
0
CIRCLE
5
234
100
AcDbEntity
8
0
100
AcDbCircle
10
3.5487437515788756
20
-821.86478354918245
30
0
40
1.6000000000000045
210
0
220
0
230
1
0
CIRCLE
5
235
100
AcDbEntity
8
0
100
AcDbCircle
10
135.24756652765947
20
-831.50961652475053
30
0
40
1.6000000000000003
210
0
220
0
230
1
0
LINE
5
236
100
AcDbEntity
8
0
100
AcDbLine
10
176.57619289197703
20
-737.14301081781605
30
0
11
177.30193982880559
21
-733.73569077150842
31
0
0
LINE
5
237
100
AcDbEntity
8
0
100
AcDbLine
10
57.917405250451338
20
-719.82078581004612
30
0
11
26.844754086714548
21
-719.82078581004612
31
0
0
LINE
5
238
100
AcDbEntity
8
0
100
AcDbLine
10
34.676414293826895
20
-815.11811688253545
30
0
11
42.967405250451165
21
-815.11811688253545
31
0
0
LINE
5
239
100
AcDbEntity
8
0
100
AcDbLine
10
174.06220784292935
20
-748.94595647153278
30
0
11
173.3591282365299
21
-752.24685078654716
31
0
0
LINE
5
240
100
AcDbEntity
8
0
100
AcDbLine
10
15.286743751178042
20
-766.68375790329014
30
0
11
15.286743751122224
21
-776.98577773560362
31
0
0
LINE
5
241
100
AcDbEntity
8
0
100
AcDbLine
10
15.286743751178042
20
-766.68375790329014
30
0
11
15.28674375115436
21
-757.92078253277566
31
0
0
LINE
5
242
100
AcDbEntity
8
0
100
AcDbLine
10
18.584470171512724
20
-757.92078253277566
30
0
11
15.28674375115436
21
-757.92078253277566
31
0
0
LINE
5
243
100
AcDbEntity
8
0
100
AcDbLine
10
140.47994574233425
20
-824.11870030966827
30
0
11
119.52781962699413
21
-819.6559665240386
31
0
0
LINE
5
244
100
AcDbEntity
8
0
100
AcDbLine
10
175.44255166504541
20
-811.24626929657268
30
0
11
171.30243000067264
21
-830.68378783823255
31
0
0
LINE
5
245
100
AcDbEntity
8
0
100
AcDbLine
10
140.47994574233425
20
-824.11870030966827
30
0
11
171.30243000067264
21
-830.68378783823255
31
0
0
LINE
5
246
100
AcDbEntity
8
0
100
AcDbLine
10
248.76387374179706
20
-819.92148632828275
30
0
11
249.70634971026996
21
-819.72146431052124
31
0
0
LINE
5
247
100
AcDbEntity
8
0
100
AcDbLine
10
248.76387374179706
20
-819.92148632828275
30
0
11
188.70615141817379
21
-832.66755859238003
31
0
0
LINE
5
248
100
AcDbEntity
8
0
100
AcDbLine
10
188.54006631145489
20
-831.88498863555424
30
0
11
188.70615141817379
21
-832.66755859238003
31
0
0
ENDSEC
0
SECTION
2
OBJECTS
0
DICTIONARY
5
C
100
AcDbDictionary
3
ACAD_GROUP
350
D
3
ACAD_MLINESTYLE
350
17
0
DICTIONARY
5
D
100
AcDbDictionary
0
DICTIONARY
5
1A
330
C
100
AcDbDictionary
0
DICTIONARY
5
17
100
AcDbDictionary
0
ENDSEC
0
EOF
