0
SECTION
2
HEADER
9
$INSUNITS
70
4
9
$ACADVER
1
AC1014
9
$HANDSEED
5
FFFF
0
ENDSEC
0
SECTION
2
TABLES
0
TABLE
2
VPORT
5
8
100
AcDbSymbolTable
0
ENDTAB
0
TABLE
2
LTYPE
5
5
100
AcDbSymbolTable
0
LTYPE
5
14
100
AcDbSymbolTableRecord
100
AcDbLinetypeTableRecord
2
BYBLOCK
70
0
0
LTYPE
5
15
100
AcDbSymbolTableRecord
100
AcDbLinetypeTableRecord
2
BYLAYER
70
0
0
ENDTAB
0
TABLE
2
LAYER
5
2
100
AcDbSymbolTable
70
2
0
LAYER
5
50
100
AcDbSymbolTableRecord
100
AcDbLayerTableRecord
2
0
70
0
6
CONTINUOUS
0
ENDTAB
0
TABLE
2
STYLE
5
3
100
AcDbSymbolTable
70
1
0
STYLE
5
11
100
AcDbSymbolTableRecord
100
AcDbTextStyleTableRecord
2
STANDARD
70
0
0
ENDTAB
0
TABLE
2
VIEW
5
6
100
AcDbSymbolTable
70
0
0
ENDTAB
0
TABLE
2
UCS
5
7
100
AcDbSymbolTable
70
0
0
ENDTAB
0
TABLE
2
APPID
5
9
100
AcDbSymbolTable
70
2
0
APPID
5
12
100
AcDbSymbolTableRecord
100
AcDbRegAppTableRecord
2
ACAD
70
0
0
ENDTAB
0
TABLE
2
DIMSTYLE
5
A
100
AcDbSymbolTable
70
1
0
ENDTAB
0
TABLE
2
BLOCK_RECORD
5
1
100
AcDbSymbolTable
70
1
0
BLOCK_RECORD
5
1F
100
AcDbSymbolTableRecord
100
AcDbBlockTableRecord
2
*MODEL_SPACE
0
BLOCK_RECORD
5
1B
100
AcDbSymbolTableRecord
100
AcDbBlockTableRecord
2
*PAPER_SPACE
0
ENDTAB
0
ENDSEC
0
SECTION
2
BLOCKS
0
BLOCK
5
20
100
AcDbEntity
100
AcDbBlockBegin
2
*MODEL_SPACE
0
ENDBLK
5
21
100
AcDbEntity
100
AcDbBlockEnd
0
BLOCK
5
1C
100
AcDbEntity
100
AcDbBlockBegin
2
*PAPER_SPACE
0
ENDBLK
5
1D
100
AcDbEntity
100
AcDbBlockEnd
0
ENDSEC
0
SECTION
2
ENTITIES
0
LWPOLYLINE
5
100
100
AcDbEntity
8
0
100
AcDbPolyline
90
31
70
1
43
0.0
10
182.95348879944541
20
-1031.7191179880567
10
180.44489120328421
20
-1031.2495250635457
10
92.651755613226612
20
-1012.8771432209392
10
12.199875259952549
20
-1012.8771432209392
10
5.1518700924602641
20
-1012.8771432209392
42
-0.414213562384458
10
1.1518700924602099
20
-1008.877143220784
10
1.1518700928093706
20
-999.87719322088776
10
1.1518700918093527
20
-999.87709322088779
10
1.1518700923095748
20
-907.5151419290014
10
1.1518700922112335
20
-898.51514192907246
42
-0.41421356237629997
10
5.1518700922112899
20
-894.51514192902869
10
12.199875259952684
20
-894.51514192902869
10
98.591863632755206
20
-894.5151419290288
10
119.12417630165072
20
-894.5151419290288
10
143.02568331313421
20
-889.46566366905972
42
-0.052097390928388672
10
143.64578435174903
20
-889.40087434207396
10
214.48462903253497
20
-889.40087434207408
42
-0.052457370193247872
10
215.10894493015871
20
-889.46655185773989
10
237.64396760643825
20
-894.26114418987265
10
273.32220471755272
20
-894.26114418987277
10
350.77686813091782
20
-894.26114418987299
10
357.6182069783963
20
-894.26114418987277
42
-0.41421356237309503
10
361.6182069783963
20
-898.26114418987288
10
361.61820697839624
20
-1000.6707669732116
42
0.0015761348640272398
10
361.61830697639618
20
-1000.6392445128499
10
361.61830697639624
20
-1009.63914451285
42
-0.41421356237309503
10
357.61830697639618
20
-1013.63914451285
10
350.57020584797419
20
-1013.63914451285
10
274.64958275250433
20
-1013.63914451285
10
185.84961469895012
20
-1031.2898756243981
10
183.71139478058984
20
-1031.7148886696004
42
-0.095605686111676913
0
LWPOLYLINE
5
101
100
AcDbEntity
8
0
100
AcDbPolyline
90
31
70
1
43
0.0
10
119.12417630165072
20
-894.5151419290288
10
143.02568331313421
20
-889.46566366905972
42
-0.052097390928388672
10
143.64578435174903
20
-889.40087434207396
10
214.48462903253497
20
-889.40087434207408
42
-0.052457370193247872
10
215.10894493015871
20
-889.46655185773989
10
237.64396760643825
20
-894.26114418987265
10
273.32220471755272
20
-894.26114418987277
10
350.77686813091782
20
-894.26114418987299
10
357.6182069783963
20
-894.26114418987277
42
-0.41421356237309503
10
361.6182069783963
20
-898.26114418987288
10
361.61820697839624
20
-1000.6707669732116
42
0.0015761348640272398
10
361.61830697639618
20
-1000.6392445128499
10
361.61830697639624
20
-1009.63914451285
42
-0.41421356237309503
10
357.61830697639618
20
-1013.63914451285
10
350.57020584797419
20
-1013.63914451285
10
274.64958275250433
20
-1013.63914451285
10
185.84961469895012
20
-1031.2898756243981
10
183.71139478058984
20
-1031.7148886696004
42
-0.095605686111676913
10
182.95348879944541
20
-1031.7191179880567
10
180.44489120328421
20
-1031.2495250635457
10
92.651755613226612
20
-1012.8771432209392
10
12.199875259952549
20
-1012.8771432209392
10
5.1518700924602641
20
-1012.8771432209392
42
-0.414213562384458
10
1.1518700924602099
20
-1008.877143220784
10
1.1518700928093706
20
-999.87719322088776
10
1.1518700918093527
20
-999.87709322088779
10
1.1518700923095748
20
-907.5151419290014
10
1.1518700922112335
20
-898.51514192907246
42
-0.41421356237629997
10
5.1518700922112899
20
-894.51514192902869
10
12.199875259952684
20
-894.51514192902869
10
98.591863632755206
20
-894.5151419290288
0
CIRCLE
5
102
100
AcDbEntity
8
0
100
AcDbCircle
10
136.35069286854079
20
-1018.5219761964875
30
0
40
1.6000000000000003
210
0
220
0
230
1
0
CIRCLE
5
103
100
AcDbEntity
8
0
100
AcDbCircle
10
136.35069286854079
20
-1018.5219761964875
30
0
40
1.6000000000000003
210
0
220
0
230
1
0
LINE
5
104
100
AcDbEntity
8
0
100
AcDbLine
10
356.61830697739617
20
-1013.63914451285
30
0
11
357.61830697639618
21
-1013.63914451285
31
0
0
LINE
5
105
100
AcDbEntity
8
0
100
AcDbLine
10
356.61830697739617
20
-1013.63914451285
30
0
11
357.61830697639618
21
-1013.63914451285
31
0
0
CIRCLE
5
106
100
AcDbEntity
8
0
100
AcDbCircle
10
277.50220471755279
20
-897.76114418987288
30
0
40
1.5999999999999928
210
0
220
0
230
1
0
LINE
5
107
100
AcDbEntity
8
0
100
AcDbLine
10
275.81881558274461
20
-897.76114418987288
30
0
11
275.90220471755276
21
-897.76114418987288
31
0
0
LINE
5
108
100
AcDbEntity
8
0
100
AcDbLine
10
275.81881558274461
20
-897.76114418987288
30
0
11
275.90220471755276
21
-897.76114418987288
31
0
0
CIRCLE
5
109
100
AcDbEntity
8
0
100
AcDbCircle
10
277.50220471755279
20
-897.76114418987288
30
0
40
1.5999999999999928
210
0
220
0
230
1
0
LINE
5
110
100
AcDbEntity
8
0
100
AcDbLine
10
6.1518700923094114
20
-894.51514192902869
30
0
11
5.1518700922112899
21
-894.51514192902869
31
0
0
LINE
5
111
100
AcDbEntity
8
0
100
AcDbLine
10
361.6182069783963
20
-909.01908885024432
30
0
11
361.6182069783963
21
-907.26114418987265
31
0
0
CIRCLE
5
112
100
AcDbEntity
8
0
100
AcDbCircle
10
4.6518700930578589
20
-898.51509192900744
30
0
40
1.6000000000000045
210
0
220
0
230
1
0
LINE
5
113
100
AcDbEntity
8
0
100
AcDbLine
10
6.1518700923094114
20
-894.51514192902869
30
0
11
5.1518700922112899
21
-894.51514192902869
31
0
0
CIRCLE
5
114
100
AcDbEntity
8
0
100
AcDbCircle
10
4.6518700930578589
20
-898.51509192900744
30
0
40
1.6000000000000045
210
0
220
0
230
1
0
CIRCLE
5
115
100
AcDbEntity
8
0
100
AcDbCircle
10
94.411540716843774
20
-898.16053213181567
30
0
40
1.6000000000000019
210
0
220
0
230
1
0
CIRCLE
5
116
100
AcDbEntity
8
0
100
AcDbCircle
10
232.47596507055403
20
-1018.5219761964875
30
0
40
1.6000000000000099
210
0
220
0
230
1
0
CIRCLE
5
117
100
AcDbEntity
8
0
100
AcDbCircle
10
358.11820697799527
20
-1008.8771432209198
30
0
40
1.6000000000000045
210
0
220
0
230
1
0
CIRCLE
5
118
100
AcDbEntity
8
0
100
AcDbCircle
10
358.11820697799527
20
-1008.8771432209198
30
0
40
1.6000000000000045
210
0
220
0
230
1
0
CIRCLE
5
119
100
AcDbEntity
8
0
100
AcDbCircle
10
94.411540716843774
20
-898.16053213181567
30
0
40
1.6000000000000019
210
0
220
0
230
1
0
CIRCLE
5
120
100
AcDbEntity
8
0
100
AcDbCircle
10
232.47596507055403
20
-1018.5219761964875
30
0
40
1.6000000000000099
210
0
220
0
230
1
0
CIRCLE
5
121
100
AcDbEntity
8
0
100
AcDbCircle
10
4.6518700924602925
20
-1008.8771432209195
30
0
40
1.6000000000000045
210
0
220
0
230
1
0
CIRCLE
5
122
100
AcDbEntity
8
0
100
AcDbCircle
10
4.6518700924602925
20
-1008.8771432209195
30
0
40
1.6000000000000045
210
0
220
0
230
1
0
LINE
5
123
100
AcDbEntity
8
0
100
AcDbLine
10
361.6182069783963
20
-909.01908885024432
30
0
11
361.6182069783963
21
-907.26114418987265
31
0
0
CIRCLE
5
124
100
AcDbEntity
8
0
100
AcDbCircle
10
358.11820697739802
20
-898.51509192900789
30
0
40
1.6000000000000045
210
0
220
0
230
1
0
CIRCLE
5
125
100
AcDbEntity
8
0
100
AcDbCircle
10
358.11820697739802
20
-898.51509192900789
30
0
40
1.6000000000000045
210
0
220
0
230
1
0
LINE
5
126
100
AcDbEntity
8
0
100
AcDbLine
10
361.6182069783963
20
-909.01908885024432
30
0
11
361.6182069783963
21
-907.26114418987265
31
0
0
LINE
5
127
100
AcDbEntity
8
0
100
AcDbLine
10
361.6182069783963
20
-909.01908885024432
30
0
11
361.6182069783963
21
-907.26114418987265
31
0
0
ENDSEC
0
SECTION
2
OBJECTS
0
DICTIONARY
5
C
100
AcDbDictionary
3
ACAD_GROUP
350
D
3
ACAD_MLINESTYLE
350
17
0
DICTIONARY
5
D
100
AcDbDictionary
0
DICTIONARY
5
1A
330
C
100
AcDbDictionary
0
DICTIONARY
5
17
100
AcDbDictionary
0
ENDSEC
0
EOF
