0
SECTION
2
HEADER
9
$INSUNITS
70
4
9
$ACADVER
1
AC1014
9
$HANDSEED
5
FFFF
0
ENDSEC
0
SECTION
2
TABLES
0
TABLE
2
VPORT
5
8
100
AcDbSymbolTable
0
ENDTAB
0
TABLE
2
LTYPE
5
5
100
AcDbSymbolTable
0
LTYPE
5
14
100
AcDbSymbolTableRecord
100
AcDbLinetypeTableRecord
2
BYBLOCK
70
0
0
LTYPE
5
15
100
AcDbSymbolTableRecord
100
AcDbLinetypeTableRecord
2
BYLAYER
70
0
0
ENDTAB
0
TABLE
2
LAYER
5
2
100
AcDbSymbolTable
70
2
0
LAYER
5
50
100
AcDbSymbolTableRecord
100
AcDbLayerTableRecord
2
0
70
0
6
CONTINUOUS
0
ENDTAB
0
TABLE
2
STYLE
5
3
100
AcDbSymbolTable
70
1
0
STYLE
5
11
100
AcDbSymbolTableRecord
100
AcDbTextStyleTableRecord
2
STANDARD
70
0
0
ENDTAB
0
TABLE
2
VIEW
5
6
100
AcDbSymbolTable
70
0
0
ENDTAB
0
TABLE
2
UCS
5
7
100
AcDbSymbolTable
70
0
0
ENDTAB
0
TABLE
2
APPID
5
9
100
AcDbSymbolTable
70
2
0
APPID
5
12
100
AcDbSymbolTableRecord
100
AcDbRegAppTableRecord
2
ACAD
70
0
0
ENDTAB
0
TABLE
2
DIMSTYLE
5
A
100
AcDbSymbolTable
70
1
0
ENDTAB
0
TABLE
2
BLOCK_RECORD
5
1
100
AcDbSymbolTable
70
1
0
BLOCK_RECORD
5
1F
100
AcDbSymbolTableRecord
100
AcDbBlockTableRecord
2
*MODEL_SPACE
0
BLOCK_RECORD
5
1B
100
AcDbSymbolTableRecord
100
AcDbBlockTableRecord
2
*PAPER_SPACE
0
ENDTAB
0
ENDSEC
0
SECTION
2
BLOCKS
0
BLOCK
5
20
100
AcDbEntity
100
AcDbBlockBegin
2
*MODEL_SPACE
0
ENDBLK
5
21
100
AcDbEntity
100
AcDbBlockEnd
0
BLOCK
5
1C
100
AcDbEntity
100
AcDbBlockBegin
2
*PAPER_SPACE
0
ENDBLK
5
1D
100
AcDbEntity
100
AcDbBlockEnd
0
ENDSEC
0
SECTION
2
ENTITIES
0
LWPOLYLINE
5
100
100
AcDbEntity
8
0
100
AcDbPolyline
90
30
70
1
43
0.0
10
4.1191800576804027
20
443.42950582616743
10
4.1191800571803938
20
351.06755453428104
10
4.1191800572785908
20
342.06755453435176
42
-0.41421356237628953
10
0.11918005727867609
20
338.0675545343081
10
-6.9288251104628173
20
338.0675545343081
10
-93.320813483265482
20
338.06755453430821
42
-0.41421356237309503
10
-95.320813483265482
20
340.06755453430821
10
-95.320813483265482
20
346.06755453430821
10
-177.96826649996615
20
364.35732591081234
10
-266.05115456806351
20
345.81355679515212
10
-266.05115456806345
20
339.81355679515218
42
-0.41421356237309503
10
-268.05115456806345
20
337.81355679515218
10
-345.50581798142889
20
337.81355679515218
10
-352.34715682890737
20
337.81355679515224
42
-0.41421356237309503
10
-356.34715682890726
20
341.81355679515212
10
-356.34715682890743
20
444.22317957849123
42
0.0015761348640184348
10
-356.34725682690726
20
444.19165711812974
10
-356.34725682690737
20
453.19155711812977
42
-0.41421356237309503
10
-352.34725682690737
20
457.19155711812971
10
-345.29915569848538
20
457.19155711812971
10
-269.37853260301506
20
457.19155711812971
10
-180.57856454946074
20
474.84228822967782
10
-178.4403446311004
20
475.26730127488042
42
-0.095605686111680271
10
-177.68243864995597
20
475.27153059333671
10
-175.17384105379477
20
474.80193766882559
10
-87.380705463736987
20
456.42955582621886
10
-6.9288251104628173
20
456.4295558262188
10
0.1191800570294885
20
456.4295558262188
42
-0.414213562384458
10
4.1191800570294745
20
452.42955582606362
10
4.1191800566804559
20
443.42960582616746
0
CIRCLE
5
101
100
AcDbEntity
8
0
100
AcDbCircle
10
0.61918005702946033
20
452.42955582619936
30
0
40
1.6000000000000045
210
0
220
0
230
1
0
CIRCLE
5
102
100
AcDbEntity
8
0
100
AcDbCircle
10
-131.07964271905126
20
462.07438880176721
30
0
40
1.6000000000000003
210
0
220
0
230
1
0
CIRCLE
5
103
100
AcDbEntity
8
0
100
AcDbCircle
10
0.61918005643210705
20
342.06750453428697
30
0
40
1.6000000000000045
210
0
220
0
230
1
0
LINE
5
104
100
AcDbEntity
8
0
100
AcDbLine
10
-0.88081994281960618
20
338.0675545343081
30
0
11
0.11918005727867609
21
338.0675545343081
31
0
0
CIRCLE
5
105
100
AcDbEntity
8
0
100
AcDbCircle
10
-89.140490567354092
20
341.71294473709497
30
0
40
1.6000000000000019
210
0
220
0
230
1
0
CIRCLE
5
106
100
AcDbEntity
8
0
100
AcDbCircle
10
-352.84715682850646
20
452.42955582619959
30
0
40
1.6000000000000045
210
0
220
0
230
1
0
LINE
5
107
100
AcDbEntity
8
0
100
AcDbLine
10
-270.54776543325534
20
341.31355679515218
30
0
11
-270.63115456806349
21
341.31355679515218
31
0
0
CIRCLE
5
108
100
AcDbEntity
8
0
100
AcDbCircle
10
-272.23115456806346
20
341.31355679515218
30
0
40
1.5999999999999928
210
0
220
0
230
1
0
CIRCLE
5
109
100
AcDbEntity
8
0
100
AcDbCircle
10
-227.2049149210647
20
462.07438880176721
30
0
40
1.6000000000000099
210
0
220
0
230
1
0
LINE
5
110
100
AcDbEntity
8
0
100
AcDbLine
10
-266.05115456806351
20
345.81355679515212
30
0
11
-179.14082640237348
21
364.10155550324129
31
0
0
LINE
5
111
100
AcDbEntity
8
0
100
AcDbLine
10
-351.3472568279073
20
457.19155711812971
30
0
11
-352.34725682690737
21
457.19155711812971
31
0
0
LINE
5
112
100
AcDbEntity
8
0
100
AcDbLine
10
-356.34715682890726
20
352.57150145552384
30
0
11
-356.34715682890726
21
350.81355679515218
31
0
0
CIRCLE
5
113
100
AcDbEntity
8
0
100
AcDbCircle
10
-352.84715682790903
20
342.06750453428708
30
0
40
1.6000000000000045
210
0
220
0
230
1
0
LINE
5
114
100
AcDbEntity
8
0
100
AcDbLine
10
-356.34715682890726
20
352.57150145552384
30
0
11
-356.34715682890726
21
350.81355679515218
31
0
0
LWPOLYLINE
5
115
100
AcDbEntity
8
0
100
AcDbPolyline
90
21
70
1
43
0.0
10
-350.34715682890743
20
451.19155711812971
10
-350.34715682890726
20
343.81355679515218
10
-345.50581798142889
20
343.81355679515218
10
-272.05115456806351
20
343.81355679515218
10
-272.05115456806351
20
350.6819212024451
10
-177.93667789179946
20
370.49549866571562
10
-89.320813483265482
20
350.88492579015622
10
-89.320813483265482
20
344.06755453430821
10
-6.9288251104628173
20
344.0675545343081
10
-1.880819942743176
20
344.0675545343081
10
-1.8808199428196071
20
351.06755453421556
10
-1.8808199423195984
20
443.42947582775514
10
-1.8808199433195461
20
443.42957582785527
10
-1.8808199430480865
20
450.4295558262188
10
-6.9288251104628173
20
450.4295558262188
10
-88.001785509450045
20
450.42955582621886
10
-176.3404605477254
20
468.91610216455172
10
-178.02770092065236
20
469.23194243414633
10
-179.40883101166446
20
468.95741580535503
10
-268.78800028796769
20
451.19155711812971
10
-345.29915569848538
20
451.19155711812971
0
ENDSEC
0
SECTION
2
OBJECTS
0
DICTIONARY
5
C
100
AcDbDictionary
3
ACAD_GROUP
350
D
3
ACAD_MLINESTYLE
350
17
0
DICTIONARY
5
D
100
AcDbDictionary
0
DICTIONARY
5
1A
330
C
100
AcDbDictionary
0
DICTIONARY
5
17
100
AcDbDictionary
0
ENDSEC
0
EOF
