0
SECTION
2
HEADER
9
$INSUNITS
70
4
9
$ACADVER
1
AC1014
9
$HANDSEED
5
FFFF
0
ENDSEC
0
SECTION
2
TABLES
0
TABLE
2
VPORT
5
8
100
AcDbSymbolTable
0
ENDTAB
0
TABLE
2
LTYPE
5
5
100
AcDbSymbolTable
0
LTYPE
5
14
100
AcDbSymbolTableRecord
100
AcDbLinetypeTableRecord
2
BYBLOCK
70
0
0
LTYPE
5
15
100
AcDbSymbolTableRecord
100
AcDbLinetypeTableRecord
2
BYLAYER
70
0
0
ENDTAB
0
TABLE
2
LAYER
5
2
100
AcDbSymbolTable
70
2
0
LAYER
5
50
100
AcDbSymbolTableRecord
100
AcDbLayerTableRecord
2
0
70
0
6
CONTINUOUS
0
ENDTAB
0
TABLE
2
STYLE
5
3
100
AcDbSymbolTable
70
1
0
STYLE
5
11
100
AcDbSymbolTableRecord
100
AcDbTextStyleTableRecord
2
STANDARD
70
0
0
ENDTAB
0
TABLE
2
VIEW
5
6
100
AcDbSymbolTable
70
0
0
ENDTAB
0
TABLE
2
UCS
5
7
100
AcDbSymbolTable
70
0
0
ENDTAB
0
TABLE
2
APPID
5
9
100
AcDbSymbolTable
70
2
0
APPID
5
12
100
AcDbSymbolTableRecord
100
AcDbRegAppTableRecord
2
ACAD
70
0
0
ENDTAB
0
TABLE
2
DIMSTYLE
5
A
100
AcDbSymbolTable
70
1
0
ENDTAB
0
TABLE
2
BLOCK_RECORD
5
1
100
AcDbSymbolTable
70
1
0
BLOCK_RECORD
5
1F
100
AcDbSymbolTableRecord
100
AcDbBlockTableRecord
2
*MODEL_SPACE
0
BLOCK_RECORD
5
1B
100
AcDbSymbolTableRecord
100
AcDbBlockTableRecord
2
*PAPER_SPACE
0
ENDTAB
0
ENDSEC
0
SECTION
2
BLOCKS
0
BLOCK
5
20
100
AcDbEntity
100
AcDbBlockBegin
2
*MODEL_SPACE
0
ENDBLK
5
21
100
AcDbEntity
100
AcDbBlockEnd
0
BLOCK
5
1C
100
AcDbEntity
100
AcDbBlockBegin
2
*PAPER_SPACE
0
ENDBLK
5
1D
100
AcDbEntity
100
AcDbBlockEnd
0
ENDSEC
0
SECTION
2
ENTITIES
0
LINE
5
100
100
AcDbEntity
8
0
100
AcDbLine
10
-355.01998699523222
20
667.17613413540164
30
0
11
-356.01998699423223
21
667.17613413540164
31
0
0
LWPOLYLINE
5
101
100
AcDbEntity
8
0
100
AcDbPolyline
90
30
70
1
43
0.0
10
-360.01998699423223
20
663.17613413540153
42
-0.41421356237309503
10
-356.01998699423223
20
667.17613413540164
10
-348.97188586581024
20
667.17613413540164
10
-273.05126277033997
20
667.17613413540164
10
-184.25129471678557
20
684.82686524694964
10
-182.11307479842526
20
685.25187829215224
42
-0.095605686111676913
10
-181.3551688172808
20
685.25610761060864
10
-178.8465712211196
20
684.78651468609746
10
-91.053435631061774
20
666.41413284349085
10
-10.601555277787487
20
666.41413284349073
10
-3.5535501102951805
20
666.41413284349085
42
-0.414213562384458
10
0.44644988970480526
20
662.41413284333566
10
0.44644988935571561
20
653.41418284343933
10
0.44644989035573346
20
653.41408284343925
10
0.44644988985572454
20
561.05213155155286
10
0.44644988995392154
20
552.05213155162357
42
-0.41421356237628953
10
-3.5535501100459932
20
548.05213155157992
10
-10.601555277787487
20
548.05213155157992
10
-96.993543650590226
20
548.05213155158003
42
-0.41421356237310542
10
-98.993543650590226
20
550.05213155158003
10
-98.993543650590226
20
556.05213155158003
10
-181.64099666729089
20
574.3419029280841
10
-269.72388473538837
20
555.798133812424
10
-269.72388473538831
20
549.79813381242388
42
-0.41421356237309503
10
-271.72388473538831
20
547.79813381242388
10
-349.17854814875369
20
547.79813381242388
10
-356.01988699623223
20
547.79813381242388
42
-0.41421356237309503
10
-360.01988699623217
20
551.79813381242388
10
-360.01988699623223
20
654.20775659576304
42
0.0015761348640272398
10
-360.01998699423217
20
654.17623413540139
0
CIRCLE
5
102
100
AcDbEntity
8
0
100
AcDbCircle
10
-356.51988699583126
20
662.41413284347129
30
0
40
1.6000000000000045
210
0
220
0
230
1
0
LINE
5
103
100
AcDbEntity
8
0
100
AcDbLine
10
-360.01988699623217
20
562.55607847279543
30
0
11
-360.01988699623217
21
560.79813381242388
31
0
0
CIRCLE
5
104
100
AcDbEntity
8
0
100
AcDbCircle
10
-356.51988699523395
20
552.0520815515589
30
0
40
1.6000000000000045
210
0
220
0
230
1
0
LINE
5
105
100
AcDbEntity
8
0
100
AcDbLine
10
-360.01988699623217
20
562.55607847279543
30
0
11
-360.01988699623217
21
560.79813381242388
31
0
0
CIRCLE
5
106
100
AcDbEntity
8
0
100
AcDbCircle
10
-92.813220734678836
20
551.69752175436679
30
0
40
1.6000000000000019
210
0
220
0
230
1
0
CIRCLE
5
107
100
AcDbEntity
8
0
100
AcDbCircle
10
-230.87764508838958
20
672.05896581903914
30
0
40
1.6000000000000099
210
0
220
0
230
1
0
CIRCLE
5
108
100
AcDbEntity
8
0
100
AcDbCircle
10
-134.75237288637607
20
672.05896581903914
30
0
40
1.6000000000000003
210
0
220
0
230
1
0
LINE
5
109
100
AcDbEntity
8
0
100
AcDbLine
10
-269.72388473538837
20
555.798133812424
30
0
11
-182.81355656969822
21
574.08613252051305
31
0
0
CIRCLE
5
110
100
AcDbEntity
8
0
100
AcDbCircle
10
-3.053550110295209
20
662.41413284347118
30
0
40
1.6000000000000045
210
0
220
0
230
1
0
LINE
5
111
100
AcDbEntity
8
0
100
AcDbLine
10
-4.5535501101442755
20
548.05213155157992
30
0
11
-3.5535501100459932
21
548.05213155157992
31
0
0
CIRCLE
5
112
100
AcDbEntity
8
0
100
AcDbCircle
10
-3.0535501108925622
20
552.05208155155879
30
0
40
1.6000000000000045
210
0
220
0
230
1
0
LINE
5
113
100
AcDbEntity
8
0
100
AcDbLine
10
-274.22049560058019
20
551.29813381242388
30
0
11
-274.30388473538835
21
551.29813381242388
31
0
0
CIRCLE
5
114
100
AcDbEntity
8
0
100
AcDbCircle
10
-275.90388473538837
20
551.29813381242388
30
0
40
1.5999999999999928
210
0
220
0
230
1
0
LINE
5
115
100
AcDbEntity
8
0
100
AcDbLine
10
-180.48522646614191
20
574.08613252051305
30
0
11
-98.993543650590226
21
556.05213155158003
31
0
0
LINE
5
116
100
AcDbEntity
8
0
100
AcDbLine
10
-76.472211609167729
20
560.37013510433462
30
0
11
-64.449560445430748
21
560.37013510433462
31
0
0
LINE
5
117
100
AcDbEntity
8
0
100
AcDbLine
10
-57.422211609167704
20
560.37013510433462
30
0
11
-26.349560445430757
21
560.37013510433462
31
0
0
LINE
5
118
100
AcDbEntity
8
0
100
AcDbLine
10
-22.835879567745177
20
563.88379983313507
30
0
11
-22.835879567745177
21
575.90646714575712
31
0
0
LINE
5
119
100
AcDbEntity
8
0
100
AcDbLine
10
-95.098884735388381
20
558.21113413540161
30
0
11
-83.076233571651414
21
558.21113413540161
31
0
0
LINE
5
120
100
AcDbEntity
8
0
100
AcDbLine
10
-117.45075108870233
20
561.65800912539783
30
0
11
-105.64781282951552
21
559.14402911347543
31
0
0
LINE
5
121
100
AcDbEntity
8
0
100
AcDbLine
10
-79.774392486853259
20
560.37013510433462
30
0
11
-79.774392486853259
21
558.21113413540161
31
0
0
LINE
5
122
100
AcDbEntity
8
0
100
AcDbLine
10
-83.076233571651414
20
558.21113413540161
30
0
11
-79.774392486853259
21
558.21113413540161
31
0
0
LINE
5
123
100
AcDbEntity
8
0
100
AcDbLine
10
-76.472211609167729
20
560.37013510433462
30
0
11
-79.774392486853259
21
560.37013510433462
31
0
0
LINE
5
124
100
AcDbEntity
8
0
100
AcDbLine
10
-18.66604365059025
20
582.93379983313503
30
0
11
-18.66604365059025
21
594.95646714575719
31
0
0
LINE
5
125
100
AcDbEntity
8
0
100
AcDbLine
10
-18.66604365059025
20
594.95646714575719
30
0
11
-18.66604365059025
21
597.45412896775827
31
0
0
LINE
5
126
100
AcDbEntity
8
0
100
AcDbLine
10
-22.835879567745177
20
579.42013510433458
30
0
11
-18.666043650590254
21
579.42013510433458
31
0
0
LINE
5
127
100
AcDbEntity
8
0
100
AcDbLine
10
-18.66604365059025
20
582.93379983313503
30
0
11
-18.666043650590254
21
579.42013510433458
31
0
0
LINE
5
128
100
AcDbEntity
8
0
100
AcDbLine
10
-22.835879567745177
20
575.90646714575712
30
0
11
-22.835879567745177
21
579.42013510433458
31
0
0
LINE
5
129
100
AcDbEntity
8
0
100
AcDbLine
10
-18.66604365059025
20
598.47013182706417
30
0
11
-18.089276530228922
21
598.47013182706417
31
0
0
LINE
5
130
100
AcDbEntity
8
0
100
AcDbLine
10
-18.66604365059025
20
597.45412896775827
30
0
11
-18.66604365059025
21
598.47013182706417
31
0
0
LINE
5
131
100
AcDbEntity
8
0
100
AcDbLine
10
-22.835879567745177
20
563.88379983313507
30
0
11
-22.835879567745177
21
560.37013510433462
31
0
0
LINE
5
132
100
AcDbEntity
8
0
100
AcDbLine
10
-26.349560445430757
20
560.37013510433462
30
0
11
-22.835879567745177
21
560.37013510433462
31
0
0
LINE
5
133
100
AcDbEntity
8
0
100
AcDbLine
10
-57.422211609167704
20
560.37013510433462
30
0
11
-64.449560445430748
21
560.37013510433462
31
0
0
LINE
5
134
100
AcDbEntity
8
0
100
AcDbLine
10
-95.098884735388381
20
558.21113413540161
30
0
11
-101.26794434357197
21
558.21113413540161
31
0
0
LINE
5
135
100
AcDbEntity
8
0
100
AcDbLine
10
-105.64781282951552
20
559.14402911347543
30
0
11
-101.26794434357197
21
558.21113413540161
31
0
0
LINE
5
136
100
AcDbEntity
8
0
100
AcDbLine
10
-161.64054773723058
20
571.05469424590024
30
0
11
-117.45075108870233
21
561.65800912539783
31
0
0
LINE
5
137
100
AcDbEntity
8
0
100
AcDbLine
10
-176.08099925069379
20
577.69236011210444
30
0
11
-173.56701420164603
21
589.49530576582129
31
0
0
LINE
5
138
100
AcDbEntity
8
0
100
AcDbLine
10
-173.31606868340171
20
573.54153828972562
30
0
11
-161.64054773723058
21
571.05469424590024
31
0
0
SPLINE
5
139
100
AcDbEntity
8
0
100
AcDbSpline
70
0
71
3
72
8
73
4
74
0
42
0.000000001
43
0.0000000001
44
0.0000000001
40
0.0048930099710583624
40
0.0048930099710583624
40
0.0048930099710583624
40
0.0048930099710583624
40
0.016046732372442741
40
0.016046732372442741
40
0.016046732372442741
40
0.016046732372442741
10
-161.64054773723049
20
571.05469424590069
30
0
10
-161.61990332318499
20
571.05009726859271
30
0
10
-161.59921961601634
20
571.0456997504765
30
0
10
-161.57850007158748
20
571.04150068632475
30
0
0
LINE
5
140
100
AcDbEntity
8
0
100
AcDbLine
10
-178.70372952831477
20
594.04005714839445
30
0
11
-172.8639345952466
21
592.79620008083566
31
0
0
LINE
5
141
100
AcDbEntity
8
0
100
AcDbLine
10
-181.45748759643845
20
598.26544410264785
30
0
11
-178.94355962892712
21
610.11072354921976
31
0
0
LINE
5
142
100
AcDbEntity
8
0
100
AcDbLine
10
-172.82148241923326
20
615.91844240852538
30
0
11
-170.30755413754278
21
627.76373958948398
31
0
0
LINE
5
143
100
AcDbEntity
8
0
100
AcDbLine
10
-175.42105663048321
20
632.41746176239292
30
0
11
-169.58126461505185
21
631.17360702925407
31
0
0
LINE
5
144
100
AcDbEntity
8
0
100
AcDbLine
10
-178.19766728166655
20
636.53569349969359
30
0
11
-175.68816042998208
21
648.31761439825061
31
0
0
LINE
5
145
100
AcDbEntity
8
0
100
AcDbLine
10
-173.31606868340171
20
573.54153828972562
30
0
11
-176.80674618752224
21
574.28504006579703
31
0
0
LINE
5
146
100
AcDbEntity
8
0
100
AcDbLine
10
-176.08099925069379
20
577.69236011210444
30
0
11
-176.80674618752224
21
574.28504006579703
31
0
0
LINE
5
147
100
AcDbEntity
8
0
100
AcDbLine
10
-173.56701420164603
20
589.49530576582129
30
0
11
-172.8639345952466
21
592.79620008083566
31
0
0
LINE
5
148
100
AcDbEntity
8
0
100
AcDbLine
10
-181.45748759643845
20
598.26544410264785
30
0
11
-182.19891301624401
21
594.78451970807396
31
0
0
LINE
5
149
100
AcDbEntity
8
0
100
AcDbLine
10
-178.70372952831477
20
594.04005714839445
30
0
11
-182.19891301624401
21
594.78451970807396
31
0
0
LINE
5
150
100
AcDbEntity
8
0
100
AcDbLine
10
-173.57203563057308
20
612.39465901649044
30
0
11
-178.24748857026378
21
613.39051370673189
31
0
0
LINE
5
151
100
AcDbEntity
8
0
100
AcDbLine
10
-172.82148241923326
20
615.91844240852538
30
0
11
-173.57203563057308
21
612.39465901649044
31
0
0
LINE
5
152
100
AcDbEntity
8
0
100
AcDbLine
10
-178.94355962892712
20
610.11072354921976
30
0
11
-178.24748857026378
21
613.39051370673189
31
0
0
LINE
5
153
100
AcDbEntity
8
0
100
AcDbLine
10
-170.30755413754278
20
627.76373958948398
30
0
11
-169.58126461505185
21
631.17360702925407
31
0
0
LINE
5
154
100
AcDbEntity
8
0
100
AcDbLine
10
-178.19766728166655
20
636.53569349969359
30
0
11
-178.9162670026231
21
633.16192902307853
31
0
0
LINE
5
155
100
AcDbEntity
8
0
100
AcDbLine
10
-175.42105663048321
20
632.41746176239292
30
0
11
-178.9162670026231
21
633.16192902307853
31
0
0
LINE
5
156
100
AcDbEntity
8
0
100
AcDbLine
10
-110.78523893968745
20
659.16312643570109
30
0
11
-99.051962438758579
21
656.67296889410136
31
0
0
LINE
5
157
100
AcDbEntity
8
0
100
AcDbLine
10
-34.181220652543388
20
655.66746617682395
30
0
11
-22.200879567745222
21
655.66746617682395
31
0
0
LINE
5
158
100
AcDbEntity
8
0
100
AcDbLine
10
-42.472211609167687
20
640.12613413540157
30
0
11
-42.472211609167687
21
652.14880144802339
31
0
0
LINE
5
159
100
AcDbEntity
8
0
100
AcDbLine
10
-13.909888611120856
20
640.12613413540157
30
0
11
-13.909888611120858
21
652.14880144802351
31
0
0
LINE
5
160
100
AcDbEntity
8
0
100
AcDbLine
10
-22.200879567745222
20
655.66746617682395
30
0
11
-13.909888611120858
21
655.66746617682395
31
0
0
LINE
5
161
100
AcDbEntity
8
0
100
AcDbLine
10
-13.909888611120858
20
652.14880144802351
30
0
11
-13.909888611120858
21
655.66746617682395
31
0
0
LINE
5
162
100
AcDbEntity
8
0
100
AcDbLine
10
-34.181220652543388
20
655.66746617682395
30
0
11
-42.472211609167687
21
655.66746617682395
31
0
0
LINE
5
163
100
AcDbEntity
8
0
100
AcDbLine
10
-42.472211609167687
20
652.14880144802339
30
0
11
-42.472211609167687
21
655.66746617682395
31
0
0
LINE
5
164
100
AcDbEntity
8
0
100
AcDbLine
10
-78.123209025346071
20
636.57513994900023
30
0
11
-66.142867940547902
21
636.57513994900012
31
0
0
LINE
5
165
100
AcDbEntity
8
0
100
AcDbLine
10
-13.909888611120856
20
636.62746940660111
30
0
11
-10.624882151566792
21
636.62746940660111
31
0
0
LINE
5
166
100
AcDbEntity
8
0
100
AcDbLine
10
-13.909888611120856
20
640.12613413540157
30
0
11
-13.909888611120856
21
636.62746940660111
31
0
0
LINE
5
167
100
AcDbEntity
8
0
100
AcDbLine
10
-66.142867940547902
20
636.57513994900012
30
0
11
-42.472211609167687
21
636.575139949
31
0
0
LINE
5
168
100
AcDbEntity
8
0
100
AcDbLine
10
-42.472211609167687
20
640.12613413540157
30
0
11
-42.472211609167687
21
636.575139949
31
0
0
LINE
5
169
100
AcDbEntity
8
0
100
AcDbLine
10
-94.148278010874748
20
639.82815327009996
30
0
11
-91.632653114361744
21
651.63887423120866
31
0
0
LINE
5
170
100
AcDbEntity
8
0
100
AcDbLine
10
-78.123209025346071
20
636.57513994900023
30
0
11
-94.841153689353092
21
636.57513994900023
31
0
0
LINE
5
171
100
AcDbEntity
8
0
100
AcDbLine
10
-94.148278010874748
20
639.82815327009996
30
0
11
-94.841153689353092
21
636.57513994900023
31
0
0
LINE
5
172
100
AcDbEntity
8
0
100
AcDbLine
10
-99.051962438758579
20
656.67296889410136
30
0
11
-90.930088599279046
21
654.94926065355139
31
0
0
LINE
5
173
100
AcDbEntity
8
0
100
AcDbLine
10
-91.632653114361744
20
651.63887423120866
30
0
11
-90.930088599279046
21
654.94926065355139
31
0
0
LINE
5
174
100
AcDbEntity
8
0
100
AcDbLine
10
-175.68816042998208
20
648.31761439825061
30
0
11
-174.94735802376212
21
651.7956185908613
31
0
0
LINE
5
175
100
AcDbEntity
8
0
100
AcDbLine
10
-110.78523893968745
20
659.16312643570109
30
0
11
-118.89065616269184
21
660.88334208254776
31
0
0
LINE
5
176
100
AcDbEntity
8
0
100
AcDbLine
10
-119.03262598571077
20
660.20531581832734
30
0
11
-118.89065616269184
21
660.88334208254776
31
0
0
LINE
5
177
100
AcDbEntity
8
0
100
AcDbLine
10
-14.791550109838496
20
617.53512702989201
30
0
11
-13.734212901078511
21
617.53512702989201
31
0
0
LWPOLYLINE
5
178
100
AcDbEntity
8
0
100
AcDbPolyline
90
62
70
1
43
0.0
10
-183.08384078131189
20
579.7089431316499
10
-185.5828851465304
20
591.48409311126375
10
-186.3142256380969
20
594.91766969203252
10
-188.10600143225972
20
594.53602735517029
10
-195.59969858121124
20
592.93989456836709
10
-196.33127886300065
20
596.37460403740192
10
-198.83342662204336
20
608.12198271180705
10
-199.6181217828472
20
611.80605964822416
10
-194.97889762836854
20
612.79419773728489
10
-196.90239261111878
20
621.85745139599226
10
-198.87967436388232
20
631.17414119281545
10
-189.58912365062784
20
633.15299786477794
10
-191.38778857931794
20
641.61505104515618
10
-193.54894818818278
20
651.78250761240997
10
-192.07175183740745
20
652.09714556496533
10
-184.08953404288158
20
653.79733163867331
10
-186.44304539347391
20
664.8867502651085
10
-188.04487267017157
20
672.43433792984297
10
-188.21095777689044
20
673.21690788666842
10
-246.68934018462178
20
660.80601950765208
10
-249.21115606898684
20
660.27081360480997
10
-249.35475732467881
20
660.9450092677389
10
-263.58553069597093
20
657.91390563128516
10
-277.81629921644674
20
654.88280302803787
10
-276.24772827979075
20
647.51847229039288
10
-273.91577758503024
20
636.57012702989209
10
-284.00000423192978
20
636.57012702989209
10
-300.83038812665416
20
636.57012702989209
10
-300.83038812665416
20
650.52937444227143
10
-300.83038812665416
20
655.6201399490003
10
-315.38038812665417
20
655.6201399490003
10
-329.93038812665418
20
655.6201399490003
10
-329.93038812665418
20
649.00000967085361
10
-329.93038812665418
20
636.57012702989209
10
-329.54721968361002
20
636.57012702989209
10
-329.54721968361014
20
629.00000937283039
10
-329.54721968361036
20
617.52012702989214
10
-328.42471064184895
20
617.52012702989214
10
-325.48130107907724
20
617.52012702989214
10
-325.48130107907724
20
608.00000905990612
10
-325.48130107907724
20
598.47013510433476
10
-325.26022226743174
20
598.47013510433476
10
-324.44601658285831
20
598.47013510433476
10
-321.19655204801035
20
598.47013510433476
10
-321.19655204801035
20
591.66158290808016
10
-321.19655204801035
20
580.00000864267349
10
-321.19655204801035
20
579.42013510433469
10
-317.26422259040947
20
579.42013510433469
10
-317.26422259040947
20
575.90646714575723
10
-317.26422259040947
20
563.88379983313507
10
-317.26422259040947
20
560.37013510433462
10
-294.70055786160907
20
560.37013510433462
10
-282.67789054898697
20
560.37013510433462
10
-279.58755753863142
20
560.37013510433462
10
-279.58755753863142
20
558.21113413540161
10
-276.03155043312194
20
558.21113413540161
10
-264.05121742276634
20
558.21113413540161
10
-260.49521839169938
20
558.21113413540161
10
-260.49521839169938
20
559.64962746914762
10
-253.50320423019986
20
561.13354517907715
10
-241.6579568206003
20
563.6474663473706
10
-182.35052279121936
20
576.25365060612751
0
LINE
5
179
100
AcDbEntity
8
0
100
AcDbLine
10
-183.08384078131189
20
579.7089431316499
30
0
11
-185.5828851465304
21
591.48409311126375
31
0
0
LINE
5
180
100
AcDbEntity
8
0
100
AcDbLine
10
-260.49521839169938
20
557.74101127337326
30
0
11
-260.49521839169938
21
557.74006455567246
31
0
0
LWPOLYLINE
5
181
100
AcDbEntity
8
0
100
AcDbPolyline
90
29
70
1
43
0.0
10
-324.7572221059429
20
558.21113413540161
10
-336.77988538134366
20
558.21113413540161
10
-340.2935541473654
20
558.21113413540161
10
-340.2935541473654
20
561.76713316646851
10
-340.2935541473654
20
573.74746617682399
10
-340.2935541473654
20
577.28213413540152
10
-344.44221887616584
20
577.28213413540152
10
-344.44221887616584
20
580.81713316646847
10
-344.44221887616584
20
592.79746617682406
10
-344.44221887616584
20
596.33146520789091
10
-348.54855333992111
20
596.33146520789091
10
-348.54855333992111
20
599.86713316646842
10
-348.54855333992123
20
611.84746617682413
10
-348.54855333992123
20
615.40347328233361
10
-344.99255430885427
20
615.40347328233349
10
-332.96988699623222
20
615.40347328233349
10
-329.45622226743177
20
615.40347328233338
10
-329.45622226743177
20
611.84746617682413
10
-329.45622226743177
20
599.86713316646842
10
-329.45622226743177
20
596.33146520789091
10
-328.90588683474334
20
596.33146520789091
10
-325.39222210594295
20
596.33146520789091
10
-325.39222210594295
20
592.79746617682406
10
-325.39222210594295
20
580.81713316646847
10
-325.39222210594295
20
577.28213413540152
10
-321.20121903763402
20
577.28213413540152
10
-321.20121903765482
20
573.74746617682399
10
-321.20121903772309
20
561.76715179991766
10
-321.20121903774236
20
558.21113413540161
0
LINE
5
182
100
AcDbEntity
8
0
100
AcDbLine
10
-10.624882151566792
20
625.00000931322575
30
0
11
-10.624882151566792
21
636.62746940660111
31
0
0
LINE
5
183
100
AcDbEntity
8
0
100
AcDbLine
10
-10.624882151566792
20
625.00000931322575
30
0
11
-10.624882151566792
21
617.53512702989201
31
0
0
LINE
5
184
100
AcDbEntity
8
0
100
AcDbLine
10
-13.734212901078511
20
617.53512702989201
30
0
11
-10.624882151566792
21
617.53512702989201
31
0
0
LINE
5
185
100
AcDbEntity
8
0
100
AcDbLine
10
-14.791550109894269
20
607.23310719757853
30
0
11
-14.791550109838496
21
617.53512702989201
31
0
0
LINE
5
186
100
AcDbEntity
8
0
100
AcDbLine
10
-18.089276530228922
20
598.47013182706417
30
0
11
-14.791550109871112
21
598.47013182706417
31
0
0
LINE
5
187
100
AcDbEntity
8
0
100
AcDbLine
10
-14.791550109894269
20
607.23310719757853
30
0
11
-14.791550109871112
21
598.47013182706417
31
0
0
LINE
5
188
100
AcDbEntity
8
0
100
AcDbLine
10
-174.94735802376212
20
651.7956185908613
30
0
11
-170.97389616310593
21
670.4506835508397
31
0
0
LINE
5
189
100
AcDbEntity
8
0
100
AcDbLine
10
-139.31238708152355
20
664.52483807151384
30
0
11
-119.03262598571077
21
660.20531581832734
31
0
0
LINE
5
190
100
AcDbEntity
8
0
100
AcDbLine
10
-139.31238708152355
20
664.52483807151384
30
0
11
-170.80723635938955
21
671.23313713252128
31
0
0
LINE
5
191
100
AcDbEntity
8
0
100
AcDbLine
10
-170.97389616310593
20
670.4506835508397
30
0
11
-170.80723635938955
21
671.23313713252128
31
0
0
ENDSEC
0
SECTION
2
OBJECTS
0
DICTIONARY
5
C
100
AcDbDictionary
3
ACAD_GROUP
350
D
3
ACAD_MLINESTYLE
350
17
0
DICTIONARY
5
D
100
AcDbDictionary
0
DICTIONARY
5
1A
330
C
100
AcDbDictionary
0
DICTIONARY
5
17
100
AcDbDictionary
0
ENDSEC
0
EOF
